<svg width="35" height="20" viewBox="0 0 43 27" fill="none" xmlns="http://www.w3.org/2000/svg">
<path d="M0 24.1708C0 24.6581 0.129 25.1311 0.387 25.5898C0.645 26.0484 0.989 26.3781 1.419 26.5788C1.849 26.8081 2.322 26.9084 2.838 26.8798C3.354 26.8511 3.79833 26.7078 4.171 26.4498L20.296 15.6998C21.0987 15.1551 21.5 14.3954 21.5 13.4208C21.5 12.4461 21.0987 11.7151 20.296 11.2278L4.171 0.477778C3.76967 0.191111 3.32533 0.0334444 2.838 0.00477778C2.35067 -0.0238889 1.87767 0.0764444 1.419 0.305778C0.989 0.535111 0.645 0.864778 0.387 1.29478C0.129 1.72478 0 2.18344 0 2.67078L0 24.1708ZM21.5 24.1708C21.5 24.6581 21.629 25.1311 21.887 25.5898C22.145 26.0484 22.489 26.3781 22.919 26.5788C23.349 26.8081 23.822 26.9084 24.338 26.8798C24.854 26.8511 25.2983 26.7078 25.671 26.4498L41.796 15.6998C42.5987 15.1551 43 14.3954 43 13.4208C43 12.4461 42.5987 11.7151 41.796 11.2278L25.671 0.477778C25.2697 0.191111 24.8253 0.0334444 24.338 0.00477778C23.8507 -0.0238889 23.3777 0.0764444 22.919 0.305778C22.489 0.535111 22.145 0.864778 21.887 1.29478C21.629 1.72478 21.5 2.18344 21.5 2.67078V24.1708Z" fill="#4A4A4A"/>
</svg>
