<svg width="80" height="70" viewBox="0 0 96 84" fill="none" xmlns="http://www.w3.org/2000/svg">
<g filter="url(#filter0_d_37_181)">
<path d="M4 68.1768C4 69.5514 4.264 70.8855 4.792 72.1793C5.32 73.473 6.024 74.4029 6.904 74.9689C7.784 75.6157 8.752 75.8987 9.808 75.8179C10.864 75.737 11.7733 75.3327 12.536 74.605L45.536 44.2832C47.1787 42.7469 48 40.6042 48 37.855C48 35.1059 47.1787 33.044 45.536 31.6694L12.536 1.34763C11.7147 0.539054 10.8053 0.0943344 9.808 0.0134763C8.81067 -0.0673817 7.84267 0.215621 6.904 0.862486C6.024 1.50935 5.32 2.43922 4.792 3.65209C4.264 4.86496 4 6.15869 4 7.53327L4 68.1768ZM48 68.1768C48 69.5514 48.264 70.8855 48.792 72.1793C49.32 73.473 50.024 74.4029 50.904 74.9689C51.784 75.6157 52.752 75.8987 53.808 75.8179C54.864 75.737 55.7733 75.3327 56.536 74.605L89.536 44.2832C91.1787 42.7469 92 40.6042 92 37.855C92 35.1059 91.1787 33.044 89.536 31.6694L56.536 1.34763C55.7147 0.539054 54.8053 0.0943344 53.808 0.0134763C52.8107 -0.0673817 51.8427 0.215621 50.904 0.862486C50.024 1.50935 49.32 2.43922 48.792 3.65209C48.264 4.86496 48 6.15869 48 7.53327V68.1768Z" fill="white"/>
<path d="M7.20014 74.566L7.18758 74.5568L7.17448 74.5483C6.40563 74.0538 5.75693 73.2204 5.25493 71.9903C4.751 70.7556 4.5 69.4855 4.5 68.1768V7.53327C4.5 6.22461 4.75093 4.9991 5.25044 3.85166C5.74937 2.70558 6.4015 1.85432 7.19402 1.26986C8.04969 0.68189 8.903 0.441745 9.7676 0.511841C10.6305 0.581804 11.4341 0.964458 12.1852 1.70394L12.1914 1.70999L12.1977 1.71581L45.1977 32.0376L45.2062 32.0454L45.2151 32.0528C46.7136 33.3068 47.5 35.2086 47.5 37.855C47.5 40.4981 46.7146 42.4956 45.1958 43.9168C45.1954 43.9172 45.1949 43.9176 45.1945 43.9181L12.1977 74.2368L12.1976 74.2368L12.1908 74.2433C11.5121 74.8909 10.7114 75.2472 9.76983 75.3193C8.83713 75.3908 7.98703 75.1444 7.20014 74.566ZM51.1876 74.5568L51.1745 74.5483C50.4056 74.0538 49.7569 73.2204 49.2549 71.9903C48.751 70.7556 48.5 69.4855 48.5 68.1768V37.855V7.53327C48.5 6.22461 48.7509 4.9991 49.2504 3.85166C49.7494 2.70558 50.4015 1.85432 51.194 1.26986C52.0497 0.681892 52.903 0.441745 53.7676 0.511841C54.6305 0.581804 55.4341 0.964459 56.1852 1.70394L56.1914 1.70999L56.1977 1.71581L89.1977 32.0376L89.2062 32.0454L89.2151 32.0528C90.7136 33.3068 91.5 35.2086 91.5 37.855C91.5 40.498 90.7147 42.4954 89.196 43.9166C89.1955 43.9171 89.195 43.9176 89.1945 43.9181L56.1977 74.2368L56.1976 74.2368L56.1908 74.2433C55.5121 74.8909 54.7114 75.2472 53.7698 75.3193C52.8371 75.3908 51.987 75.1444 51.2001 74.566L51.1876 74.5568Z" stroke="#BBBBBB"/>
</g>
<defs>
<filter id="filter0_d_37_181" x="0" y="0" width="96" height="83.8315" filterUnits="userSpaceOnUse" color-interpolation-filters="sRGB">
<feFlood flood-opacity="0" result="BackgroundImageFix"/>
<feColorMatrix in="SourceAlpha" type="matrix" values="0 0 0 0 0 0 0 0 0 0 0 0 0 0 0 0 0 0 127 0" result="hardAlpha"/>
<feOffset dy="4"/>
<feGaussianBlur stdDeviation="2"/>
<feComposite in2="hardAlpha" operator="out"/>
<feColorMatrix type="matrix" values="0 0 0 0 0 0 0 0 0 0 0 0 0 0 0 0 0 0 0.25 0"/>
<feBlend mode="normal" in2="BackgroundImageFix" result="effect1_dropShadow_37_181"/>
<feBlend mode="normal" in="SourceGraphic" in2="effect1_dropShadow_37_181" result="shape"/>
</filter>
</defs>
</svg>
