<svg width="35" height="20" viewBox="0 0 43 27" fill="none" xmlns="http://www.w3.org/2000/svg">
<path d="M0 13.4208C0 14.4241 0.401333 15.1694 1.204 15.6568L17.329 26.4068C17.7303 26.6934 18.1747 26.8511 18.662 26.8798C19.1493 26.9084 19.6223 26.8081 20.081 26.5788C20.511 26.3208 20.855 25.9768 21.113 25.5468C21.371 25.1168 21.5 24.6581 21.5 24.1708V2.67078C21.5 2.18344 21.371 1.72478 21.113 1.29478C20.855 0.864778 20.511 0.535111 20.081 0.305778C19.651 0.0764444 19.178 -0.0238889 18.662 0.00477778C18.146 0.0334444 17.7017 0.176778 17.329 0.434778L1.204 11.1848C0.401333 11.7294 0 12.4748 0 13.4208ZM21.5 13.4208C21.5 14.4241 21.9013 15.1694 22.704 15.6568L38.829 26.4068C39.2303 26.6934 39.6747 26.8511 40.162 26.8798C40.6493 26.9084 41.1223 26.8081 41.581 26.5788C42.011 26.3208 42.355 25.9768 42.613 25.5468C42.871 25.1168 43 24.6581 43 24.1708V2.67078C43 2.18344 42.871 1.72478 42.613 1.29478C42.355 0.864778 42.011 0.535111 41.581 0.305778C41.151 0.0764444 40.678 -0.0238889 40.162 0.00477778C39.646 0.0334444 39.2017 0.176778 38.829 0.434778L22.704 11.1848C21.9013 11.7294 21.5 12.4748 21.5 13.4208Z" fill="#4A4A4A"/>
</svg>
