<svg width="80" height="70" viewBox="0 0 94 83" fill="none" xmlns="http://www.w3.org/2000/svg">
<g filter="url(#filter0_d_37_182)">
<path d="M86 7.51542C86 6.16583 85.742 4.85593 85.226 3.58572C84.71 2.31552 84.022 1.40255 83.162 0.846839C82.302 0.211736 81.356 -0.0661246 80.324 0.0132633C79.292 0.0926511 78.4033 0.489596 77.658 1.20409L45.408 30.9745C43.8027 32.4829 43 34.5867 43 37.2859C43 39.9851 43.8027 42.0095 45.408 43.3591L77.658 73.1295C78.4607 73.9234 79.3493 74.36 80.324 74.4394C81.2987 74.5188 82.2447 74.2409 83.162 73.6058C84.022 72.9707 84.71 72.0578 85.226 70.867C85.742 69.6761 86 68.4059 86 67.0563L86 7.51542ZM43 7.51542C43 6.16583 42.742 4.85593 42.226 3.58572C41.71 2.31552 41.022 1.40255 40.162 0.846839C39.302 0.211736 38.356 -0.0661246 37.324 0.0132633C36.292 0.0926511 35.4033 0.489596 34.658 1.20409L2.408 30.9745C0.802666 32.4829 0 34.5867 0 37.2859C0 39.9851 0.802666 42.0095 2.408 43.3591L34.658 73.1295C35.4607 73.9234 36.3493 74.36 37.324 74.4394C38.2987 74.5188 39.2447 74.2409 40.162 73.6058C41.022 72.9707 41.71 72.0578 42.226 70.867C42.742 69.6761 43 68.4059 43 67.0563L43 7.51542Z" fill="white"/>
<path d="M82.865 1.24905L82.8775 1.25832L82.8906 1.26679C83.6395 1.75071 84.2725 2.56709 84.7628 3.7739C85.2549 4.98531 85.5 6.23138 85.5 7.51542L85.5 67.0563C85.5 68.3403 85.2549 69.5426 84.7672 70.6682C84.2801 71.7924 83.6437 72.6266 82.8711 73.1991C82.0368 73.775 81.2058 74.0096 80.3646 73.9411C79.525 73.8727 78.7423 73.4987 78.0096 72.774L78.0035 72.768L77.9971 72.7621L45.7471 42.9917L45.7386 42.9838L45.7298 42.9763C44.2682 41.7476 43.5 39.883 43.5 37.2859C43.5 34.6922 44.2671 32.7336 45.7488 31.3405C45.7493 31.3399 45.7498 31.3394 45.7504 31.3389L77.9971 1.57148L77.9972 1.57155L78.004 1.56503C78.6656 0.93084 79.4454 0.582329 80.3623 0.511787C81.2704 0.44194 82.0981 0.682716 82.865 1.24905ZM39.8775 1.25832L39.8906 1.26679C40.6395 1.75071 41.2725 2.56709 41.7628 3.7739C42.2549 4.98531 42.5 6.23138 42.5 7.51542L42.5 37.2859L42.5 67.0563C42.5 68.3403 42.2549 69.5426 41.7672 70.6682C41.2801 71.7924 40.6437 72.6266 39.8711 73.1991C39.0368 73.775 38.2058 74.0096 37.3646 73.9411C36.525 73.8727 35.7423 73.4987 35.0096 72.774L35.0035 72.768L34.9971 72.7621L2.74715 42.9917L2.73862 42.9838L2.72975 42.9763C1.26821 41.7476 0.5 39.883 0.5 37.2859C0.5 34.6924 1.26699 32.7337 2.74855 31.3406C2.74916 31.3401 2.74976 31.3395 2.75037 31.3389L34.9971 1.57148L34.9972 1.57155L35.004 1.56503C35.6656 0.93084 36.4454 0.582329 37.3624 0.511787C38.2704 0.44194 39.0981 0.682716 39.865 1.24905L39.8775 1.25832Z" stroke="#9E9E9E"/>
</g>
<defs>
<filter id="filter0_d_37_182" x="0" y="0" width="94" height="82.4526" filterUnits="userSpaceOnUse" color-interpolation-filters="sRGB">
<feFlood flood-opacity="0" result="BackgroundImageFix"/>
<feColorMatrix in="SourceAlpha" type="matrix" values="0 0 0 0 0 0 0 0 0 0 0 0 0 0 0 0 0 0 127 0" result="hardAlpha"/>
<feOffset dx="4" dy="4"/>
<feGaussianBlur stdDeviation="2"/>
<feComposite in2="hardAlpha" operator="out"/>
<feColorMatrix type="matrix" values="0 0 0 0 0 0 0 0 0 0 0 0 0 0 0 0 0 0 0.25 0"/>
<feBlend mode="normal" in2="BackgroundImageFix" result="effect1_dropShadow_37_182"/>
<feBlend mode="normal" in="SourceGraphic" in2="effect1_dropShadow_37_182" result="shape"/>
</filter>
</defs>
</svg>
